<svg xmlns="http://www.w3.org/2000/svg" xmlns:xlink="http://www.w3.org/1999/xlink" viewBox="0 0 48 48" version="1.1">
<g id="surface1">
<path style=" fill:#D87B00;" d="M 42 19 C 42 26.179688 36.179688 32 29 32 C 21.820313 32 16 26.179688 16 19 C 16 11.820313 21.820313 6 29 6 C 36.179688 6 42 11.820313 42 19 Z "></path>
<path style=" fill:#FFB300;" d="M 32 29 C 32 36.179688 26.179688 42 19 42 C 11.820313 42 6 36.179688 6 29 C 6 21.820313 11.820313 16 19 16 C 26.179688 16 32 21.820313 32 29 Z "></path>
<path style=" fill:#683529;" d="M 20 28.5 C 20 29.878906 18.878906 31 17.5 31 C 16.121094 31 15 29.878906 15 28.5 C 15 27.121094 16.121094 26 17.5 26 C 18.878906 26 20 27.121094 20 28.5 Z "></path>
<path style=" fill:#683529;" d="M 21 21.5 C 21 22.328125 20.328125 23 19.5 23 C 18.671875 23 18 22.328125 18 21.5 C 18 20.671875 18.671875 20 19.5 20 C 20.328125 20 21 20.671875 21 21.5 Z "></path>
<path style=" fill:#683529;" d="M 25 34 C 25 35.105469 24.105469 36 23 36 C 21.894531 36 21 35.105469 21 34 C 21 32.894531 21.894531 32 23 32 C 24.105469 32 25 32.894531 25 34 Z "></path>
<path style=" fill:#683529;" d="M 13 30.5 C 13 31.328125 12.328125 32 11.5 32 C 10.671875 32 10 31.328125 10 30.5 C 10 29.671875 10.671875 29 11.5 29 C 12.328125 29 13 29.671875 13 30.5 Z "></path>
<path style=" fill:#683529;" d="M 27 27.5 C 27 28.328125 26.328125 29 25.5 29 C 24.671875 29 24 28.328125 24 27.5 C 24 26.671875 24.671875 26 25.5 26 C 26.328125 26 27 26.671875 27 27.5 Z "></path>
<path style=" fill:#683529;" d="M 17 36 C 17 36.550781 16.550781 37 16 37 C 15.449219 37 15 36.550781 15 36 C 15 35.449219 15.449219 35 16 35 C 16.550781 35 17 35.449219 17 36 Z "></path>
<path style=" fill:#4C2114;" d="M 28 12 C 28 13.105469 27.105469 14 26 14 C 24.894531 14 24 13.105469 24 12 C 24 10.894531 24.894531 10 26 10 C 27.105469 10 28 10.894531 28 12 Z "></path>
<path style=" fill:#4C2114;" d="M 33 16.5 C 33 17.328125 32.328125 18 31.5 18 C 30.671875 18 30 17.328125 30 16.5 C 30 15.671875 30.671875 15 31.5 15 C 32.328125 15 33 15.671875 33 16.5 Z "></path>
<path style=" fill:#4C2114;" d="M 34 10.5 C 34 11.328125 33.328125 12 32.5 12 C 31.671875 12 31 11.328125 31 10.5 C 31 9.671875 31.671875 9 32.5 9 C 33.328125 9 34 9.671875 34 10.5 Z "></path>
<path style=" fill:#4C2114;" d="M 37 21 C 37 21.550781 36.550781 22 36 22 C 35.449219 22 35 21.550781 35 21 C 35 20.449219 35.449219 20 36 20 C 36.550781 20 37 20.449219 37 21 Z "></path>
</g>
</svg>