<svg xmlns="http://www.w3.org/2000/svg" xmlns:xlink="http://www.w3.org/1999/xlink" viewBox="0 0 48 48" version="1.1">
<g id="surface1">
<path style=" fill:#FFCC80;" d="M 13 22 L 8 22 L 8 13.5 C 8 12.101563 9.101563 11 10.5 11 C 11.898438 11 13 12.101563 13 13.5 Z "></path>
<path style=" fill:#FFCC80;" d="M 20 22 L 15 22 L 15 7.5 C 15 6.101563 16.101563 5 17.5 5 C 18.898438 5 20 6.101563 20 7.5 Z "></path>
<path style=" fill:#FFCC80;" d="M 27 22 L 22 22 L 22 5.5 C 22 4.101563 23.101563 3 24.5 3 C 25.898438 3 27 4.101563 27 5.5 Z "></path>
<path style=" fill:#FFCC80;" d="M 34 22 L 29 22 L 29 8.5 C 29 7.101563 30.101563 6 31.5 6 C 32.898438 6 34 7.101563 34 8.5 Z "></path>
<path style=" fill:#FFCC80;" d="M 32.101563 43 L 27.101563 38 L 37.101563 28 C 38.5 26.601563 40.699219 26.601563 42 28 C 43.398438 29.398438 43.398438 31.601563 42 32.898438 Z "></path>
<path style=" fill:#FFCC80;" d="M 29 21 C 29 21.601563 28.601563 22 28 22 C 27.398438 22 27 21.601563 27 21 L 22 21 C 22 21.601563 21.601563 22 21 22 C 20.398438 22 20 21.601563 20 21 L 15 21 C 15 21.601563 14.601563 22 14 22 C 13.398438 22 13 21.601563 13 21 L 8 21 L 8 37 C 8 41.398438 11.601563 45 16 45 L 27.199219 45 C 30.898438 45 34 42 34 38.199219 L 34 21 Z "></path>
<path style=" fill:#F44336;" d="M 15.417969 28.972656 L 17.890625 26.496094 L 28.5 37.105469 L 26.023438 39.578125 Z "></path>
<path style=" fill:#F44336;" d="M 25.992188 26.507813 L 28.46875 28.984375 L 17.859375 39.589844 L 15.386719 37.113281 Z "></path>
</g>
</svg>