<svg xmlns="http://www.w3.org/2000/svg" xmlns:xlink="http://www.w3.org/1999/xlink" viewBox="0 0 48 48" version="1.1">
<g id="surface1">
<path style=" fill:#42A5F5;" d="M 38 42 L 8 42 C 8 42 5 41.898438 5 34 L 41 34 C 41 41.898438 38 42 38 42 "></path>
<path style=" fill:#90CAF9;" d="M 7 3 L 35 3 L 35 34 L 7 34 Z "></path>
<path style=" fill:#43A047;" d="M 43 35 C 43 40.523438 38.523438 45 33 45 C 27.476563 45 23 40.523438 23 35 C 23 29.476563 27.476563 25 33 25 C 38.523438 25 43 29.476563 43 35 Z "></path>
<path style=" fill:#1976D2;" d="M 16 12 L 30 12 L 30 14 L 16 14 Z "></path>
<path style=" fill:#1976D2;" d="M 16 16 L 30 16 L 30 18 L 16 18 Z "></path>
<path style=" fill:#1976D2;" d="M 16 20 L 30 20 L 30 22 L 16 22 Z "></path>
<path style=" fill:#1976D2;" d="M 12 12 L 14 12 L 14 14 L 12 14 Z "></path>
<path style=" fill:#1976D2;" d="M 12 16 L 14 16 L 14 18 L 12 18 Z "></path>
<path style=" fill:#1976D2;" d="M 12 20 L 14 20 L 14 22 L 12 22 Z "></path>
<path style=" fill:#1976D2;" d="M 12 24 L 14 24 L 14 26 L 12 26 Z "></path>
<path style=" fill:#1976D2;" d="M 28.199219 24 L 16 24 L 16 26 L 25.101563 26 C 26 25.199219 27.101563 24.5 28.199219 24 Z "></path>
<path style=" fill:#FFFFFF;" d="M 31 29 L 35 29 L 35 41 L 31 41 Z "></path>
<path style=" fill:#FFFFFF;" d="M 27 33 L 39 33 L 39 37 L 27 37 Z "></path>
</g>
</svg>